<svg xmlns="http://www.w3.org/2000/svg" viewBox="0 0 512 512">
    <path fill="#e91e63"
        d="M256 0C114.6 0 0 114.6 0 256s114.6 256 256 256 256-114.6 256-256S397.4 0 256 0zm0 472c-119.1 0-216-96.9-216-216S136.9 40 256 40s216 96.9 216 216-96.9 216-216 216z" />
    <path fill="#ff4081"
        d="M256 80c-97.2 0-176 78.8-176 176s78.8 176 176 176 176-78.8 176-176S353.2 80 256 80zm0 312c-75 0-136-61-136-136s61-136 136-136 136 61 136 136-61 136-136 136z" />
    <path fill="#f50057"
        d="M256 160c-52.9 0-96 43.1-96 96s43.1 96 96 96 96-43.1 96-96-43.1-96-96-96z" />
</svg>