<svg xmlns="http://www.w3.org/2000/svg" viewBox="0 0 512 512">
    <path fill="#ffffff"
        d="M256 0c-26.5 0-48 21.5-48 48v80c0 26.5 21.5 48 48 48s48-21.5 48-48V48c0-26.5-21.5-48-48-48z" />
    <path fill="#ffffff"
        d="M256 512c-26.5 0-48-21.5-48-48v-80c0-26.5 21.5-48 48-48s48 21.5 48 48v80c0 26.5-21.5 48-48 48z" />
    <path fill="#ffffff"
        d="M512 256c0-26.5-21.5-48-48-48h-80c-26.5 0-48 21.5-48 48s21.5 48 48 48h80c26.5 0 48-21.5 48-48z" />
    <path fill="#ffffff"
        d="M0 256c0-26.5 21.5-48 48-48h80c26.5 0 48 21.5 48 48s-21.5 48-48 48H48c-26.5 0-48-21.5-48-48z" />
    <path fill="#ffffff"
        d="M437 75c-18.7-18.7-49.1-18.7-67.9 0l-56.6 56.6c-18.7 18.7-18.7 49.1 0 67.9 18.7 18.7 49.1 18.7 67.9 0l56.6-56.6c18.7-18.7 18.7-49.1 0-67.9z" />
    <path fill="#ffffff"
        d="M75 437c-18.7-18.7-49.1-18.7-67.9 0s-18.7 49.1 0 67.9l56.6 56.6c18.7 18.7 49.1 18.7 67.9 0 18.7-18.7 18.7-49.1 0-67.9L75 437z" />
    <path fill="#ffffff"
        d="M437 437c18.7-18.7 49.1-18.7 67.9 0s18.7 49.1 0 67.9l-56.6 56.6c-18.7 18.7-49.1 18.7-67.9 0-18.7-18.7-18.7-49.1 0-67.9l56.6-56.6z" />
    <path fill="#ffffff"
        d="M75 75c18.7-18.7 49.1-18.7 67.9 0l56.6 56.6c18.7 18.7 18.7 49.1 0 67.9-18.7 18.7-49.1 18.7-67.9 0L75 142.9C56.3 124.2 56.3 93.8 75 75z" />
    <circle cx="256" cy="256" r="80" fill="#FFD700" />
</svg>